<?xml version="1.0" encoding="UTF-8"?>
<svg id="Layer_1" xmlns="http://www.w3.org/2000/svg" version="1.1" viewBox="0 0 500 100">
  <!-- Generator: Adobe Illustrator 30.0.0, SVG Export Plug-In . SVG Version: 2.1.1 Build 123)  -->
  <defs>
    <style>
      .st0 {
        fill: #232323;
      }

      .st1 {
        font-size: 48px;
      }

      .st2 {
        font-family: Baskerville-SemiBold, Baskerville;
        font-weight: 600;
      }

      .st3 {
        font-family: Baskerville-Italic, Baskerville;
        font-style: italic;
      }
    </style>
  </defs>
  <g>
    <path class="st0" d="M238.8,1.5h-1.9s.2,1.7.2,1.7h-1.7s0,1.7,0,1.7h1.7c.3,1.5-.4,1.3-1.2,2-2.1,2-.7,5.8,2.5,5.3s3.1-3.7,1.5-5.3-1.6-.6-1.1-2h1.6c0,0,0-1.8,0-1.8h-1.7s.2-1.7.2-1.7ZM245.2,11.4c1.4,0,2.3.6,3.4,1.4,3.8,3,6.7,9.3,5.9,14.2s-.8,1.2-.9,1.5.7,1.3,1.2,1.1c2.6-1,1.3-6.8.7-8.8-1.6-5.1-6.1-10.2-11.9-9.9s-.6-.1-.5.2c.8.2,1.5.5,2.4.2l-.2.3ZM230.8,11.2c-1-.4-2.2.2-3.2.6-3.9,1.7-6.3,5.1-7.5,9.1s-1.9,7.6,1.1,8.6l1.2-1c-.3-.6-.9-.7-1.1-1.4-1.1-5.2,2.7-12.5,7.2-15.2l2.4-.7ZM233.7,12.9c.6-.4.5-1.6-.4-1.8-2.2-.5-2.3,2-.8,2s1-.1,1.1-.2ZM242,11.1c-.6.2-.7,1.6.1,1.8,2.7.8,2.1-2.5-.1-1.8ZM225.1,11.9c-4.3,1.2-8.6,3.2-11.4,6.8s-4.4,9.1-3.7,14c.4-.1,1.7.3,1.9,0,.1-.7-.8-1.1-1-1.8s-.1-1.6.4-2.3.7-.5.7-.6c0-.3-.5-.9-.4-1.7s1-1.4,1.1-1.6c0-.3-.1-.7-.1-1.1s.3-1.2.4-1.3c.3-.4,1.2-.6,1.5-1s.2-1.4.8-2.1,1.4-.8,1.6-1.1c.2-.5-.1-1.1.4-1.6s2-.5,2.5.3c1.3-.6,2.2-2.2,3.3-3.2l2-1.5ZM245.9,12.2c-1,0-1.3,1.3-.9,2.1,2.2,1.4,2.7-2.1.9-2.1ZM263.8,32.6c2.2.4,2.2-.7,2.2-2.6,0-8.6-5.3-15.6-13.7-17.8s-.5-.1-.8,0l4.1,4.2c.9.3,1.4-1.3,2.7-.2s.4,1.3.6,1.7,1.4.6,1.9,1.6.2,1.2.3,1.6,1.1.6,1.5,1.2c.6,1,0,1.3.3,2.1s1.4,1,1.1,2.6-.4.8-.4,1,.5.4.7.5c.6.7.7,1.3.5,2.2s-1.2,1.1-1,2ZM229.3,12.4c-.8.2-1.1,1.9-.1,2.3,2.2.7,2.1-2.8.1-2.3ZM236.6,13c-1.2-.3-1.4,1-1.7,2-1,3.2-2.1,10-.1,12.9s.7.5.8.9l1-1c-.8-1-1-2.6-1.1-3.9-.2-2.9.1-6.4.7-9.2s.2-1,.4-1.5ZM240.2,13h-.9c.9,3.5,1.2,7.5.9,11s-.3,2.6-.9,3.6l.7,1c2.3-1.5,2.3-5,2.1-7.5s-.8-5.7-1.9-8.2ZM234,13.3c-.4,0-1.7.7-2.1.9-2.9,1.6-5.4,5.2-6.3,8.3s-.5,4.6-1,5.1-.8.4-.9.8c.5.7.9,1.5,1.7.8s1.3-4.8,1.7-6.4c.8-3,2.6-6.6,5.6-7.9s1.6-.4,1.7-.6c.2-.3,0-.9-.4-.9ZM251.2,29.6l.6-1.1c-1.4-.9-1-2.1-1.3-3.4-.8-4.2-2.2-7.7-5.8-10.2s-2.3-1.5-3.6-1.4c0,1.2,1.7,1.4,2.6,1.9,2.6,1.6,4,4.4,4.8,7.3s.6,5,1.3,6.1,1,1.1,1.4.8ZM237.5,13.9c-1.2.3-1,2.6.5,2.4s1.4-2.8-.5-2.4ZM226.8,14.7c-1.3.3-1,2.9.8,2.3s1-2.7-.8-2.3ZM249,14.7c-1-.6-2.1.8-1.4,1.8s2.6.2,2.1-1.1-.6-.7-.6-.7ZM217.8,16.5c-1,.9,0,2.5,1.2,1.9s0-2.9-1.2-1.9ZM257.1,16.3c-1.2.2-1.1,2.4.4,2.2s1-2.4-.4-2.2ZM237,18.7c.4.6.4,1,1.3.7,1.4-.4.8-2.8-1-2.2s-.7.9-.6,1.4.2.1.2.2ZM225.9,17.6c-.9-1-2.6,1-1.6,2s2.2,0,2-1.3-.3-.6-.4-.6ZM250,19.7c1.3,1.1,2.7-1.5,1.2-2.2s-2,1.5-1.2,2.2ZM215.9,21.4c1.4.8,2.3-1.2,1.2-1.9-1.6-1-2.3,1.3-1.2,1.9ZM258.7,19.3c-.7.2-.6,1.8.2,2,1.7.5,1.8-1.8.9-2s-.8,0-1.1,0ZM238.4,20.5c-1.1-.6-2.3.9-1.4,1.9s2.2,0,2-1.2-.6-.7-.6-.7ZM222.8,22.8c1.2,1,2.9-.7,1.7-1.8s-2.8.8-1.7,1.8ZM251.8,20.7c-1.3.2-1.3,2.6.4,2.4s1-2.7-.4-2.4ZM213.8,22.4c-.9.3-.7,1.9.1,2,1.9.4,1.8-2.6-.1-2ZM261,22.4c-1.1.3-.9,2.3.5,2.1s.9-2.5-.5-2.1ZM238.7,26.1c1.2-2.8-3.1-2.9-1.9-.1.4.5,1.4.4,1.9.1ZM222.9,24.5c-1.1.2-1.3,2.2,0,2.3,2.2.3,1.7-2.6,0-2.3ZM253,24.5c-.8-.3-2,.7-1.6,1.6s2.7.7,2.2-1-.6-.7-.6-.7ZM214.1,25.8c-1.6-.9-2.3,1.7-.9,2.1s2-1.5.9-2.1ZM261.4,27.5c1.1,1.2,2.7-.7,1.6-1.7s-2.5.8-1.6,1.7ZM239.7,30.4c0-1.7-.4-3-2.4-2.7s-1.2,1.7-1.5,2.6c-1.7-.3-3.2.8-3,2.6s.3.6.6,1,.1.7,1,.8c1.3.1,2-.5,2.9-1.3,0,2-.4,3.8-2.6,4.2s-3.7-.8-4-3.1c-1.3.3-.8.4-1,1.3-.5,1.9-1.5,2.7-3.5,2.5s-2.4-1.9-2.4-3.6c.4.3.7.8,1.2.9,3.7.8,3.9-4.8.3-4.2s-.3.5-.7.4c.3-1.6-1-3.9-2.7-2.6s-.6,1.7-.9,2.1-1.3.5-1.6.7c-2.2,1.5-.3,4.8,2.2,3.8s1.3-1.2,1.4-1c-.3.6-.2,1.4-.4,2-.7,2.5-3.7,3.4-6,2.7s-2-.9-1.6-1.3c2.1-.2,2.2-3.3.2-3.7s-1.5.2-1.8,0-1.2-1.3-2-1.6c-1.5-.6-3.2.3-3.8,1.8,4.8-1,5.8,5.1,8.6,7.5.6-.5,1.6-.7,2.4-.8,10.6-2.4,25-2.4,35.7-.5s3.5.6,4.9,1.3c2.3-1.6,3.8-7.2,6.8-7.6s1.2.2,1.9.1c-.9-1.9-2.8-2.6-4.5-1.3s-1,1.1-1.3,1.2-1-.3-1.5-.2c-2.5.2-2.4,3.5,0,3.9-1.5,2.1-5.6,1.8-7.1-.2s-.8-2.3-.9-3.5c.4,0,.5.6.8.9,1.5,1.5,4.3,0,3.7-2.3s-2.3-1.5-2.6-1.8c-.4-.5,0-1.9-1.2-2.4s-2.5,1.2-2.3,2.6c-.6,0-.9-.4-1.6-.3-2.5.3-2.2,5.1,1.2,4.3s.8-.8,1.4-.9c-.4,1.8-.7,3.4-2.9,3.6s-3.2-1.3-3.2-3.5c-1.1-.2-1,1-1.6,1.8-.9,1.2-2.1,1.3-3.5,1-2.1-.5-2.4-2.6-2.5-4.5,1,1.4,3.7,2.5,4.5.3s-.9-3.8-3.1-3.1ZM212.1,31.2c.2.2.7.2,1,.2,1.3-.2,1.3-2.7-.5-2.4s-1.1,1.6-.5,2.2ZM262.5,29c-.2,0-.3.1-.4.2-.7,1,0,2.5,1.3,2.1s.9-2.7-.9-2.3ZM221.8,74.6c-2.7,1.4-6.5.9-8.2-1.8s-1.2-4.3.3-5.8c2.4-2.3,4.9,1.7,6.6-1.1s.3-6.9-.9-9.2c-4.3-7.6-15-7.2-22.6-7.7s-16.3-.7-24.1-3.1-7.1-2.9-9.7-6c-2.9-.5-1.6,2.9-.8,4.3,5.5,9.5,23.7,9.7,33.5,11s10.9,1.2,12.6,2.8-.2,1.1-1,1.3c-2.7.7-4.3,3.3-2.2,5.7-1.8,1.1-2.2,3.3-1.2,5.2s1.3,1.4,1.4,1.8-.2,1.1-.1,1.7c0,1,.7,2,1.5,2.6s1.5.7,1.6.8.2.8.3,1.1c.5,1.2,1.5,2,2.7,2.3s.7-.2,1.5.5,1.2,1,2.1,1.2,2-.1,2.6,0,1.3.8,2.2.9,2.7-.2,2.8-1.2-.4-2.2-.5-3c-.1-1.4-.2-2.8-.2-4.2ZM266.9,59c.4-1.9,2.8-2.1,4.4-2.5,11.3-2.5,30.6-1.6,39.3-9.1s4.4-4.7,3.7-7-1.5-.8-2.1-.2-1.5,1.9-2.4,2.5c-6.7,5-20.6,5.5-28.8,6s-22.8-.1-25.8,10.4c-.5,1.9-.9,5.4.3,7.1s2.3.3,3.6,0c3.3-.6,4.3,3,3.4,5.6s-3.6,3.7-6.2,3.8-10.8-2.7-13.6-1.3-.9,2.2-.8,3.2c.1,1.4,1.7,1.9,2.7,2.6,2,1.5,5,3.8,6.7,5.7s2.1,3.6,3.2,4.4,3.4.7,4.5-.2c-1.6-.8-2.8-2.6-3.8-4.1s-.7-1.5-.9-1.7c-.3-.3-1.2-.5-1.7-1.1s-1.1-1.5-.9-1.7l1.6.2c1,1.2,1.9,1.6,3.4,1.1s1.2-.8,1.5-.8,1.5.2,2.2.1,1.7-.4,2.4-.9.3-.6.5-.7,1.1-.1,1.6-.3c1.4-.4,2.4-1.8,2.6-3.3,1.3-.2,2.8-1.5,3.1-2.9s-.2-1.8-.1-2.2,1.1-1.3,1.4-1.8c.6-1,.7-2.1.4-3.3s-.9-1.1-1.4-1.9c1.8-1.8.7-4.6-1.5-5.4s-1.5-.3-2.3-.5ZM232.3,41c-3.7.2-11.8.8-15,2.1s-1.7,3.1-.2,3.4,3.7-.6,4.9-.8c9.2-1.2,19-1.5,28.3-.5s5.6.8,8.3,1.3c1.6-.6,1.6-2.5,0-3.3s-4.4-1-5.8-1.3c-6.5-1-13.7-1.2-20.4-.9ZM258,47.4c-1.6-.2-3.1-.6-4.7-.8-9.4-1.3-19.6-1.2-29-.2s-4.3.5-6.3,1c-.3,2,1.6,2,3,2.2,7.4,1,15.9.9,23.4.6s8.4-.1,11.9-.8,1.5-.7,1.7-2ZM203,58.7c-8.3-1.7-16.9-1.8-25.2-3.4-3-.6-6.1-1.3-8.6-3.1.3,7.7,9.3,9,15.3,9.9s11.6,1.2,17.4,1.4.4,0,.5.2c0-.5-.4-.7-.6-1.2-.3-1.1-.3-1.8.2-2.8s.5-.7.8-1ZM273.3,63.7c.2,0,.3-.2.5-.2,6.6-.2,14.2-.7,20.7-1.9,5.1-.9,11.9-2.9,11.9-9.2-4.4,2.7-9.9,3.3-14.9,3.9-6.3.8-12.6,1.1-18.8,2.4.9,1.1,1.3,2.1,1.1,3.5s-.5,1-.6,1.5ZM234.6,97.2c1,.1,2.2,0,3.2,0l-1.8-.5c-9.3-5.8-10.7-20-8.4-29.9,1.3-5.4,4.5-11.6,10.3-12.9l-1.8-.3c-10.5.2-13.1,16-12.6,24s3.6,18.7,11.2,19.7ZM252.6,74.1c-.2-1.8-.3-3.6-.7-5.3-1.4-7.1-7.1-18.3-15.9-12.8s-8.2,15.7-7.6,22.9,3.7,16.1,10.6,17.3c6.1,1.1,9.9-4.4,11.6-9.5-.5-.5-1.6-2.1-2.4-2s-1.2,3.5-2,3.9l-2.7-7.7-2.2.5,3.1,9.5c-1.8,2.4-5,2.6-7.3.9l3.3-10.5-2-1.3-3,9.7c-.3,0-.4-.2-.6-.4-1.6-2.1-2.5-5.1-3-7.6,0-.3,5-2.6,5.8-2.6-.3-.9-.6-1.8-.5-2.8l-5.6,2.5c-.3,0-.2,0-.2-.2-.3-2.3,0-4.6,0-6.8l5.7,2.8.9-2.3-6.1-3.2c.6-2.8,1.4-5.9,3.3-8.1l3.4,10.4c.5-.5,1.2-.9,2-.8l-3.5-11.5c2.4-2,5.9-1.6,7.7,1l-3.4,10.5c.7-.2,1.3.4,1.9.6s.3.1.4,0l2.7-8.6.3-.2c1.1,2.8,2.2,5.7,2.5,8.7l-.3.4-3.7,1.3,7.4,1.4ZM201.2,65.9c-4.6,0-9.3-.3-13.9-1s-5.9-.9-8.6-2c.2,1.5.8,2.9,1.7,4,3.8,4.8,12.1,4.7,17.7,4.6s2.6,0,3.9,0c-1.5-1.6-1.6-3.7-.8-5.7ZM273.8,71.6c1.6,0,3.2,0,4.8,0,4,0,8.2,0,12.1-1.4s6-3.6,6.2-7.2c-2.7,1.1-5.6,1.6-8.4,2s-7.4.8-11,1-2,0-2.9,0c.4,1.5.6,2.9,0,4.3s-.9,1.3-.8,1.4ZM243.5,72.8c.5-.4-1.8-.9-2-.9-3.2-.3-3.5,5.8-1.9,7.6s.3,0,.4.2.1.3.4.4c.6.3,1.6,0,2.3.1l-1.4-.7c-2.1-1.6-1.3-7.5,2.2-6.7ZM270.2,78.2c5.8,1.8,14.3,2.2,16.3-5-4.2,1.4-8.9,1.2-13.3.9-.3,1.1-.8,1.9-1.5,2.8l-1.6,1.3ZM202.5,74.1c-4.4.2-8.9.4-13.2-.8.4,2.5,2.5,4.4,4.8,5.3,3.7,1.4,7.7.4,11.4-.4l-1.9-1.9-1.1-2.2ZM212.1,82.7c-1.9-.2-3.5-1.3-5-2.4-3.2,1-6.5,1.6-9.8,1.1,0,0,.6,1.3.7,1.4,3.7,4.9,9.7,3.9,13.9.2s.3,0,.2-.4ZM278.4,81.5c-3.3.6-6.7-.1-9.8-1.1-1.2,1-2.4,1.7-3.8,2.2s-1.5.2-1.1.5c.5-.1.5.4.9.6,4.7,3.7,11.2,3.6,13.9-2.2ZM216.8,90.1c.9.3,1.8.7,2.7.6,2.6-.1,2.9-2.4,4.6-3.9l-1.2-3.7c-1.8.9-2.4,2.8-3.6,4.3s-1.4,1.4-2.3,2.2-.3,0-.2.4ZM218.8,84.1l-4.4-.2c-2,1.7-4.1,3.8-6.9,4.1,1.5,1.4,3.4,2.1,5.5,1.7s5-3.5,5.8-5.5ZM268.3,87.9c-2.8-.3-5.1-2.2-7-4.1-1.5.4-3.1-.2-4.4.5,2.5,4.1,7.1,7.8,11.5,3.5Z"/>
    <path class="st0" d="M266.9,59c.8.2,1.5.2,2.3.5,2.2.8,3.3,3.7,1.5,5.4.5.8,1.1.9,1.4,1.9s.2,2.2-.4,3.3-1.3,1.4-1.4,1.8.2,1.5.1,2.2c-.2,1.4-1.7,2.7-3.1,2.9-.1,1.5-1.1,2.8-2.6,3.3s-1.3.1-1.6.3-.3.5-.5.7c-.6.5-1.5.9-2.4.9s-1.8-.2-2.2-.1-1.1.7-1.5.8c-1.5.5-2.4,0-3.4-1.1l-1.6-.2c-.2.2.7,1.5.9,1.7.5.5,1.4.8,1.7,1.1s.7,1.3.9,1.7c1,1.5,2.2,3.3,3.8,4.1-1.2.9-3.3,1.1-4.5.2s-2.2-3.3-3.2-4.4c-1.6-1.9-4.6-4.2-6.7-5.7s-2.6-1.2-2.7-2.6-.2-2.7.8-3.2c2.8-1.4,9.9,1.6,13.6,1.3s5.3-1.2,6.2-3.8,0-6.1-3.4-5.6-2.4,1.6-3.6,0-.9-5.2-.3-7.1c3-10.5,17.2-9.8,25.8-10.4s22-1.1,28.8-6,1.7-1.9,2.4-2.5,1.9-.6,2.1.2c.7,2.3-2.1,5.6-3.7,7-8.7,7.5-28.1,6.6-39.3,9.1s-4,.6-4.4,2.5Z"/>
    <path class="st0" d="M221.8,74.6c0,1.4,0,2.8.2,4.2s.5,2.4.5,3c0,1-2,1.3-2.8,1.2s-1.5-.7-2.2-.9-1.7.2-2.6,0-1.5-.5-2.1-1.2-.5-.3-1.5-.5-2.2-1.1-2.7-2.3-.2-.9-.3-1.1-1.2-.5-1.6-.8c-.8-.6-1.4-1.6-1.5-2.6s.2-1.4.1-1.7-1.1-1.2-1.4-1.8c-1-1.8-.6-4.1,1.2-5.2-2.1-2.3-.5-4.9,2.2-5.7s2.5,0,1-1.3-9.9-2.5-12.6-2.8c-9.7-1.3-28-1.4-33.5-11s-2.1-4.8.8-4.3c2.6,3.1,5.9,4.8,9.7,6,7.7,2.4,16,2.6,24.1,3.1s18.3.1,22.6,7.7c1.3,2.2,2.3,6.9.9,9.2s-4.1-1.2-6.6,1.1-1.4,4.1-.3,5.8c1.8,2.7,5.5,3.2,8.2,1.8Z"/>
    <path class="st0" d="M252.6,74.1l-7.4-1.4,3.7-1.3.3-.4c-.4-3-1.4-5.9-2.5-8.7l-.3.2-2.7,8.6c-.1.2-.2.1-.4,0-.6-.1-1.2-.7-1.9-.6l3.4-10.5c-1.8-2.6-5.2-3-7.7-1l3.5,11.5c-.8,0-1.4.3-2,.8l-3.4-10.4c-1.9,2.2-2.7,5.3-3.3,8.1l6.1,3.2-.9,2.3-5.7-2.8c0,2.3-.3,4.6,0,6.8s0,.3.2.2l5.6-2.5c-.1,1,.2,1.9.5,2.8-.8,0-5.7,2.3-5.8,2.6.5,2.5,1.4,5.6,3,7.6s.3.5.6.4l3-9.7,2,1.3-3.3,10.5c2.4,1.7,5.5,1.5,7.3-.9l-3.1-9.5,2.2-.5,2.7,7.7c.8-.4,1.5-3.9,2-3.9s1.8,1.5,2.4,2c-1.7,5.1-5.5,10.6-11.6,9.5-7-1.2-10.1-11.3-10.6-17.3s.8-18.7,7.6-22.9,14.5,5.7,15.9,12.8.5,3.6.7,5.3Z"/>
    <path class="st0" d="M239.7,30.4c2.2-.7,3.8,1,3.1,3.1s-3.5,1.1-4.5-.3c0,1.9.3,4,2.5,4.5s2.6.3,3.5-1,.4-2.1,1.6-1.8c0,2.2.8,3.6,3.2,3.5s2.5-1.8,2.9-3.6c-.6,0-.8.8-1.4.9-3.4.8-3.7-4-1.2-4.3s1,.3,1.6.3c-.2-1.4.7-3.2,2.3-2.6s.9,1.9,1.2,2.4,2.2.4,2.6,1.8c.5,2.4-2.2,3.8-3.7,2.3s-.3-.9-.8-.9c.2,1.2.2,2.5.9,3.5,1.4,2,5.6,2.2,7.1.2-2.3-.4-2.4-3.7,0-3.9s1.4.3,1.5.2c.3-.1.9-1,1.3-1.2,1.8-1.3,3.7-.6,4.5,1.3-.7,0-1.2-.2-1.9-.1-3,.5-4.5,6-6.8,7.6-1.5-.8-3.3-1-4.9-1.3-10.7-1.9-25.1-1.9-35.7.5s-1.8.3-2.4.8c-2.8-2.5-3.8-8.5-8.6-7.5.5-1.5,2.3-2.4,3.8-1.8s1.7,1.5,2,1.6,1.1-.2,1.8,0c2,.4,1.9,3.5-.2,3.7-.3.4,1.4,1.2,1.6,1.3,2.3.8,5.3-.1,6-2.7s.1-1.4.4-2c-.1-.1-1.1.9-1.4,1-2.5,1-4.4-2.2-2.2-3.8s1.6-.6,1.6-.7c.3-.5,0-1.4.9-2.1,1.7-1.3,3,1,2.7,2.6.5,0,.2-.3.7-.4,3.6-.7,3.4,5-.3,4.2s-.9-.6-1.2-.9c0,1.7.6,3.3,2.4,3.6s3-.6,3.5-2.5-.3-1,1-1.3c.2,2.3,1.6,3.6,4,3.1s2.6-2.2,2.6-4.2c-.9.7-1.6,1.4-2.9,1.3s-.7-.4-1-.8-.5-.3-.6-1c-.2-1.8,1.3-3,3-2.6.3-.9.3-2.4,1.5-2.6,2-.3,2.4.9,2.4,2.7Z"/>
    <path class="st0" d="M203,58.7c-.3.3-.6.6-.8,1-.5,1-.6,1.7-.2,2.8s.5.8.6,1.2c-.2,0-.3-.2-.5-.2-5.8-.2-11.7-.6-17.4-1.4s-15-2.2-15.3-9.9c2.5,1.8,5.6,2.5,8.6,3.1,8.3,1.6,16.9,1.6,25.2,3.4Z"/>
    <path class="st0" d="M273.3,63.7c.1-.5.5-1,.6-1.5.2-1.5-.2-2.4-1.1-3.5,6.2-1.3,12.5-1.6,18.8-2.4,5-.6,10.5-1.3,14.9-3.9,0,6.3-6.8,8.3-11.9,9.2-6.5,1.2-14.1,1.7-20.7,1.9s-.4,0-.5.2Z"/>
    <path class="st0" d="M232.3,41c6.6-.3,13.8,0,20.4.9s4.6.7,5.8,1.3,1.7,2.7,0,3.3c-2.8-.4-5.5-1-8.3-1.3-9.2-1-19.1-.7-28.3.5s-3.9.9-4.9.8c-1.5-.2-1.5-2.7.2-3.4,3.2-1.3,11.4-1.9,15-2.1Z"/>
    <path class="st0" d="M258,47.4c-.2,1.3-.4,1.7-1.7,2-3.5.7-8.3.7-11.9.8-7.5.3-16,.4-23.4-.6s-3.4-.2-3-2.2c2.1-.4,4.2-.7,6.3-1,9.5-1,19.6-1.1,29,.2s3.1.6,4.7.8Z"/>
    <path class="st0" d="M234.6,97.2c-7.6-1-10.9-13.4-11.2-19.7s2.1-23.8,12.6-24l1.8.3c-5.8,1.3-9,7.5-10.3,12.9-2.3,9.9-.9,24.1,8.4,29.9l1.8.5c-1,0-2.2.1-3.2,0Z"/>
    <path class="st0" d="M201.2,65.9c-.8,1.9-.7,4.1.8,5.7-1.3,0-2.6,0-3.9,0-5.6,0-13.8.2-17.7-4.6s-1.5-2.6-1.7-4c2.7,1.1,5.7,1.6,8.6,2,4.6.6,9.3.9,13.9,1Z"/>
    <path class="st0" d="M273.8,71.6c-.1-.1.7-1.1.8-1.4.6-1.4.4-2.8,0-4.3,1,0,2,0,2.9,0,3.6-.2,7.4-.5,11-1s5.8-.9,8.4-2c-.3,3.6-3.1,6-6.2,7.2s-8,1.5-12.1,1.4-3.2,0-4.8,0Z"/>
    <path class="st0" d="M202.5,74.1l1.1,2.2,1.9,1.9c-3.6.9-7.7,1.8-11.4.4-2.3-.9-4.5-2.8-4.8-5.3,4.3,1.2,8.8,1,13.2.8Z"/>
    <path class="st0" d="M270.2,78.2l1.6-1.3c.7-.9,1.2-1.7,1.5-2.8,4.4.2,9,.5,13.3-.9-2,7.2-10.5,6.8-16.3,5Z"/>
    <path class="st0" d="M212.1,82.7c.1.4,0,.3-.2.4-4.2,3.7-10.2,4.7-13.9-.2s-.8-1.3-.7-1.4c3.3.5,6.7-.1,9.8-1.1,1.5,1.1,3.1,2.2,5,2.4Z"/>
    <path class="st0" d="M278.4,81.5c-2.7,5.8-9.2,5.9-13.9,2.2s-.3-.8-.9-.6c-.4-.3,1-.5,1.1-.5,1.5-.5,2.6-1.2,3.8-2.2,3.2,1,6.5,1.7,9.8,1.1Z"/>
    <path class="st0" d="M238.8,1.5l-.2,1.7h1.7s0,1.7,0,1.7h-1.6c-.5,1.5.4,1.4,1.1,2.1,1.6,1.5.8,4.9-1.5,5.3s-4.6-3.3-2.5-5.3,1.5-.5,1.2-2h-1.7s0-1.7,0-1.7h1.7s-.2-1.7-.2-1.7h1.9Z"/>
    <path class="st0" d="M263.8,32.6c-.2-1,.8-1.2,1-2s.1-1.5-.5-2.2-.7-.4-.7-.5.3-.7.4-1c.3-1.6-.9-1.7-1.1-2.6s.3-1.1-.3-2.1-1.3-.9-1.5-1.2,0-1-.3-1.6c-.5-1-1.6-1.2-1.9-1.6s.2-1.1-.6-1.7c-1.3-1-1.9.5-2.7.2l-4.1-4.2c.3,0,.5,0,.8,0,8.3,2.2,13.6,9.1,13.7,17.8s0,3-2.2,2.6Z"/>
    <path class="st0" d="M225.1,11.9l-2,1.5c-1.1,1-2,2.5-3.3,3.2-.5-.8-1.8-1-2.5-.3s-.2,1.1-.4,1.6-1.2.7-1.6,1.1c-.7.7-.5,1.6-.8,2.1s-1.2.6-1.5,1-.4,1.1-.4,1.3c0,.4.2.8.1,1.1s-1,.8-1.1,1.6.5,1.4.4,1.7-.5.4-.7.6c-.5.6-.7,1.5-.4,2.3s1.1,1.1,1,1.8c-.1.4-1.5,0-1.9,0-.7-4.8.7-10.1,3.7-14s7.1-5.6,11.4-6.8Z"/>
    <path class="st0" d="M268.3,87.9c-4.3,4.3-9,.6-11.5-3.5,1.3-.7,3-.2,4.4-.5,1.9,1.9,4.2,3.8,7,4.1Z"/>
    <path class="st0" d="M218.8,84.1c-.9,2-3.6,5.1-5.8,5.5s-4-.3-5.5-1.7c2.8-.3,4.9-2.3,6.9-4.1l4.4.2Z"/>
    <path class="st0" d="M230.8,11.2l-2.4.7c-4.5,2.7-8.2,10-7.2,15.2s.8.8,1.1,1.4l-1.2,1c-3-1-1.7-6.3-1.1-8.6,1.2-4.1,3.6-7.4,7.5-9.1s2.2-1,3.2-.6Z"/>
    <path class="st0" d="M245.2,11.4l.2-.3c-.9.4-1.5,0-2.4-.2,0-.3.4-.1.5-.2,5.8-.2,10.3,4.8,11.9,9.9s2,7.8-.7,8.8-1.3-.7-1.2-1.1.8-.7.9-1.5c.8-4.9-2-11.1-5.9-14.2s-1.9-1.3-3.4-1.4Z"/>
    <path class="st0" d="M234,13.3c.4,0,.7.6.4.9s-1.3.5-1.7.6c-2.9,1.4-4.8,4.9-5.6,7.9s-.6,5.5-1.7,6.4-1.2,0-1.7-.8c.2-.4.7-.5.9-.8.5-.6.7-4,1-5.1.9-3.1,3.4-6.8,6.3-8.3s1.7-.9,2.1-.9Z"/>
    <path class="st0" d="M251.2,29.6c-.4.2-1.2-.5-1.4-.8-.7-1.1-.9-4.5-1.3-6.1-.7-2.9-2.2-5.7-4.8-7.3s-2.6-.8-2.6-1.9c1.3-.1,2.5.7,3.6,1.4,3.6,2.5,5,6,5.8,10.2s-.2,2.5,1.3,3.4l-.6,1.1Z"/>
    <path class="st0" d="M216.8,90.1c0-.4,0-.3.2-.4.9-.8,1.5-1.2,2.3-2.2,1.2-1.5,1.8-3.5,3.6-4.3l1.2,3.7c-1.7,1.4-2,3.8-4.6,3.9s-1.9-.3-2.7-.6Z"/>
    <path class="st0" d="M240.2,13c1.1,2.5,1.8,5.5,1.9,8.2s.1,5.9-2.1,7.5l-.7-1c.6-1.1.8-2.4.9-3.6.2-3.6,0-7.5-.9-11h.9Z"/>
    <path class="st0" d="M236.6,13c-.2.5-.3,1-.4,1.5-.5,2.9-.9,6.3-.7,9.2s.2,2.9,1.1,3.9l-1,1c-.2-.4-.6-.5-.8-.9-2-2.8-.9-9.7.1-12.9s.5-2.3,1.7-2Z"/>
    <path class="st0" d="M243.5,72.8c-3.5-.8-4.3,5.1-2.2,6.7l1.4.7c-.7,0-1.6.2-2.3-.1s-.3-.3-.4-.4-.3,0-.4-.2c-1.6-1.8-1.3-7.9,1.9-7.6s2.5.5,2,.9Z"/>
    <path class="st0" d="M237.5,13.9c1.9-.4,2.3,2.2.5,2.4s-1.8-2.1-.5-2.4Z"/>
    <path class="st0" d="M238.7,26.1c-.5.3-1.5.3-1.9-.1-1.1-2.8,3.1-2.7,1.9.1Z"/>
    <path class="st0" d="M222.8,22.8c-1.1-.9.4-3,1.7-1.8s-.5,2.8-1.7,1.8Z"/>
    <path class="st0" d="M251.8,20.7c1.4-.3,2.2,2.2.4,2.4s-1.7-2.2-.4-2.4Z"/>
    <path class="st0" d="M225.9,17.6s.4.6.4.6c.2,1.4-1.2,2.2-2,1.3s.7-2.9,1.6-2Z"/>
    <path class="st0" d="M226.8,14.7c1.9-.4,1.8,1.9.8,2.3-1.8.6-2.2-1.9-.8-2.3Z"/>
    <path class="st0" d="M222.9,24.5c1.7-.3,2.2,2.6,0,2.3s-1.1-2.1,0-2.3Z"/>
    <path class="st0" d="M250,19.7c-.9-.7-.3-2.8,1.2-2.2s.2,3.3-1.2,2.2Z"/>
    <path class="st0" d="M237,18.7s-.2,0-.2-.2c-.1-.5,0-1.2.6-1.4,1.8-.6,2.3,1.8,1,2.2s-1,0-1.3-.7Z"/>
    <path class="st0" d="M249,14.7s.6.6.6.7c.5,1.4-1.3,2.3-2.1,1.1s.5-2.4,1.4-1.8Z"/>
    <path class="st0" d="M253,24.5s.6.6.6.7c.5,1.6-1.7,2.2-2.2,1s.8-2,1.6-1.6Z"/>
    <path class="st0" d="M238.4,20.5s.6.7.6.7c.3,1.2-1.1,2.2-2,1.2s.2-2.5,1.4-1.9Z"/>
    <path class="st0" d="M229.3,12.4c2-.6,2.1,3-.1,2.3s-.7-2,.1-2.3Z"/>
    <path class="st0" d="M212.1,31.2c-.5-.5-.4-2,.5-2.2,1.8-.3,1.8,2.2.5,2.4s-.8,0-1-.2Z"/>
    <path class="st0" d="M233.7,12.9c-.1,0-.9.2-1.1.2-1.5,0-1.4-2.5.8-2s1,1.4.4,1.8Z"/>
    <path class="st0" d="M262.5,29c1.8-.4,1.8,2,.9,2.3-1.3.4-2-1.1-1.3-2.1.1-.1.3-.2.4-.2Z"/>
    <path class="st0" d="M245.9,12.2c1.8,0,1.4,3.5-.9,2.1-.4-.8-.2-2.1.9-2.1Z"/>
    <path class="st0" d="M261.4,27.5c-.8-.9.4-2.8,1.6-1.7s-.5,2.9-1.6,1.7Z"/>
    <path class="st0" d="M215.9,21.4c-1.1-.6-.4-2.9,1.2-1.9s.2,2.7-1.2,1.9Z"/>
    <path class="st0" d="M214.1,25.8c1.1.6.3,2.5-.9,2.1s-.7-3,.9-2.1Z"/>
    <path class="st0" d="M242,11.1c2.2-.7,2.8,2.7.1,1.8s-.7-1.7-.1-1.8Z"/>
    <path class="st0" d="M261,22.4c1.4-.4,2.2,1.8.5,2.1s-1.6-1.8-.5-2.1Z"/>
    <path class="st0" d="M258.7,19.3c.2,0,.8,0,1.1,0,.9.2.8,2.5-.9,2s-.8-1.8-.2-2Z"/>
    <path class="st0" d="M217.8,16.5c1.2-1,2.4,1.3,1.2,1.9s-2.2-1.1-1.2-1.9Z"/>
    <path class="st0" d="M213.8,22.4c1.9-.6,2.1,2.4.1,2s-1-1.7-.1-2Z"/>
    <path class="st0" d="M257.1,16.3c1.4-.3,1.6,2,.4,2.2s-1.6-1.9-.4-2.2Z"/>
  </g>
  <text class="st1" transform="translate(62 63.9)"><tspan class="st2" x="0" y="0">S</tspan><tspan class="st3" x="27.5" y="0">ena</tspan></text>
  <text class="st1" transform="translate(333.8 63.9)"><tspan class="st2" x="0" y="0">J</tspan><tspan class="st3" x="18" y="0">ämt</tspan></text>
</svg>